<?xml version="1.0" encoding="UTF-8" standalone="no"?>
<!DOCTYPE svg PUBLIC "-//W3C//DTD SVG 1.1//EN"
 "http://www.w3.org/Graphics/SVG/1.1/DTD/svg11.dtd">
<!-- Generated by graphviz version 15.0.0 (20260523.1842)
 -->
<!-- Title: G Pages: 1 -->
<svg width="329pt" height="260pt"
 viewBox="0.00 0.00 329.00 260.00" xmlns="http://www.w3.org/2000/svg" xmlns:xlink="http://www.w3.org/1999/xlink">
<g id="graph0" class="graph" transform="scale(1 1) rotate(0) translate(4 256)">
<title>G</title><style>.edge>path:hover{stroke-width:8}</style>
<polygon fill="white" stroke="none" points="-4,4 -4,-256 324.94,-256 324.94,4 -4,4"/>
<!-- api -->
<g id="node1" class="node">
<title>api</title><style>.edge>path:hover{stroke-width:8}</style>
<ellipse fill="#b65353" stroke="black" cx="27" cy="-234" rx="27" ry="18"/>
<text xml:space="preserve" text-anchor="middle" x="27" y="-230.5" font-family="Helvetica,sans-Serif" font-size="10.00" fill="#ffffff">api</text>
</g>
<!-- users_views -->
<g id="node7" class="node">
<title>users_views</title><style>.edge>path:hover{stroke-width:8}</style>
<ellipse fill="#3ab0b0" stroke="black" cx="113" cy="-90" rx="41.19" ry="18"/>
<text xml:space="preserve" text-anchor="middle" x="113" y="-86.5" font-family="Helvetica,sans-Serif" font-size="10.00" fill="#000000">users.views</text>
</g>
<!-- api&#45;&gt;users_views -->
<g id="edge1" class="edge">
<title>api&#45;&gt;users_views</title><style>.edge>path:hover{stroke-width:8}</style>
<path fill="none" stroke="black" d="M113,-161C116.65,-147.77 117.08,-132.59 116.42,-119.76"/>
<polygon fill="#b65353" stroke="black" points="119.91,-119.52 115.64,-109.82 112.93,-120.07 119.91,-119.52"/>
<path fill="none" stroke="black" d="M46.45,-221.02C70.42,-205.68 108.55,-179.15 113,-163"/>
</g>
<!-- api_swagger -->
<g id="node2" class="node">
<title>api_swagger</title><style>.edge>path:hover{stroke-width:8}</style>
<ellipse fill="#b65353" stroke="black" cx="113" cy="-234" rx="41.19" ry="18"/>
<text xml:space="preserve" text-anchor="middle" x="113" y="-230.5" font-family="Helvetica,sans-Serif" font-size="10.00" fill="#ffffff">api.swagger</text>
</g>
<!-- api_swagger&#45;&gt;users_views -->
<g id="edge2" class="edge">
<title>api_swagger&#45;&gt;users_views</title><style>.edge>path:hover{stroke-width:8}</style>
<path fill="none" stroke="black" d="M110.48,-215.68C108.97,-201.3 108.18,-180.46 113,-163"/>
</g>
<!-- users_admin -->
<g id="node3" class="node">
<title>users_admin</title><style>.edge>path:hover{stroke-width:8}</style>
<ellipse fill="#4cb3b3" stroke="black" cx="183" cy="-162" rx="41.64" ry="18"/>
<text xml:space="preserve" text-anchor="middle" x="183" y="-158.5" font-family="Helvetica,sans-Serif" font-size="10.00" fill="#000000">users.admin</text>
</g>
<!-- users_models -->
<g id="node4" class="node">
<title>users_models</title><style>.edge>path:hover{stroke-width:8}</style>
<ellipse fill="#3bcece" stroke="black" cx="250" cy="-234" rx="44.8" ry="18"/>
<text xml:space="preserve" text-anchor="middle" x="250" y="-230.5" font-family="Helvetica,sans-Serif" font-size="10.00" fill="#000000">users.models</text>
</g>
<!-- users_models&#45;&gt;users_admin -->
<g id="edge3" class="edge">
<title>users_models&#45;&gt;users_admin</title><style>.edge>path:hover{stroke-width:8}</style>
<path fill="none" stroke="black" d="M234.46,-216.76C226.09,-208.02 215.59,-197.05 206.27,-187.31"/>
<polygon fill="#3bcece" stroke="black" points="208.94,-185.04 199.5,-180.24 203.89,-189.89 208.94,-185.04"/>
</g>
<!-- users_tests -->
<g id="node5" class="node">
<title>users_tests</title><style>.edge>path:hover{stroke-width:8}</style>
<ellipse fill="#49acac" stroke="black" cx="282" cy="-162" rx="38.94" ry="18"/>
<text xml:space="preserve" text-anchor="middle" x="282" y="-158.5" font-family="Helvetica,sans-Serif" font-size="10.00" fill="#000000">users.tests</text>
</g>
<!-- users_models&#45;&gt;users_tests -->
<g id="edge4" class="edge">
<title>users_models&#45;&gt;users_tests</title><style>.edge>path:hover{stroke-width:8}</style>
<path fill="none" stroke="black" d="M257.75,-216.05C261.32,-208.23 265.66,-198.75 269.67,-189.98"/>
<polygon fill="#3bcece" stroke="black" points="272.72,-191.72 273.7,-181.17 266.35,-188.81 272.72,-191.72"/>
</g>
<!-- users_urls -->
<g id="node6" class="node">
<title>users_urls</title><style>.edge>path:hover{stroke-width:8}</style>
<ellipse fill="#49acac" stroke="black" cx="113" cy="-18" rx="35.33" ry="18"/>
<text xml:space="preserve" text-anchor="middle" x="113" y="-14.5" font-family="Helvetica,sans-Serif" font-size="10.00" fill="#000000">users.urls</text>
</g>
<!-- users_views&#45;&gt;users_urls -->
<g id="edge5" class="edge">
<title>users_views&#45;&gt;users_urls</title><style>.edge>path:hover{stroke-width:8}</style>
<path fill="none" stroke="black" d="M113,-71.7C113,-64.41 113,-55.73 113,-47.54"/>
<polygon fill="#3ab0b0" stroke="black" points="116.5,-47.62 113,-37.62 109.5,-47.62 116.5,-47.62"/>
</g>
</g>
</svg>
